<svg xmlns="http://www.w3.org/2000/svg" width="2000" height="385" viewBox="0 0 2000 385">
<style>
text { font-family: Arial, Helvetica, sans-serif; fill: #1b1f24; }
.title { font-size: 24px; font-weight: 700; }
.panel-title { font-size: 18px; font-weight: 700; }
.label { font-size: 14px; }
.value { font-size: 13px; font-weight: 600; }
.axis { stroke: #9aa4af; stroke-width: 1; }
.grid { stroke: #e5e7eb; stroke-width: 1; }
</style>
<rect width="100%" height="100%" fill="#ffffff"/>
<text class="title" x="30" y="30">mc_maze model diagnostics</text>
<text class="panel-title" x="20" y="30">co-bps</text>
<line class="grid" x1="310.0" y1="45" x2="310.0" y2="345"/>
<text class="label" x="310.0" y="369" text-anchor="middle">-0.48</text>
<line class="grid" x1="825.9" y1="45" x2="825.9" y2="345"/>
<text class="label" x="825.9" y="369" text-anchor="middle">0.00</text>
<line class="grid" x1="930.0" y1="45" x2="930.0" y2="345"/>
<text class="label" x="930.0" y="369" text-anchor="middle">0.10</text>
<line class="axis" x1="825.9" y1="45" x2="825.9" y2="345"/>
<text class="label" x="20" y="83.0" dominant-baseline="middle">static PCA latent regression</text>
<rect x="825.9" y="71.0" width="4.2" height="24" rx="4" fill="#0f766e"/>
<text class="value" x="838.1" y="83.0" dominant-baseline="middle" text-anchor="start">0.0039</text>
<text class="label" x="20" y="139.0" dominant-baseline="middle">static direct ridge</text>
<rect x="789.7" y="127.0" width="36.1" height="24" rx="4" fill="#b45309"/>
<text class="value" x="781.7" y="139.0" dominant-baseline="middle" text-anchor="end">-0.0335</text>
<text class="label" x="20" y="195.0" dominant-baseline="middle">lagged direct ridge (5 bins)</text>
<rect x="361.7" y="183.0" width="464.2" height="24" rx="4" fill="#b45309"/>
<text class="value" x="353.7" y="195.0" dominant-baseline="middle" text-anchor="end">-0.4301</text>
<text class="label" x="20" y="251.0" dominant-baseline="middle">lagged PCA latent regression (5 bins)</text>
<rect x="825.9" y="239.0" width="45.1" height="24" rx="4" fill="#0f766e"/>
<text class="value" x="879.0" y="251.0" dominant-baseline="middle" text-anchor="start">0.0418</text>
<text class="label" x="20" y="307.0" dominant-baseline="middle">lagged PCA latent regression (selected history)</text>
<rect x="825.9" y="295.0" width="52.5" height="24" rx="4" fill="#0f766e"/>
<text class="value" x="886.3" y="307.0" dominant-baseline="middle" text-anchor="start">0.0486</text>
<text class="panel-title" x="1040" y="30">vel R2</text>
<line class="grid" x1="1330.0" y1="45" x2="1330.0" y2="345"/>
<text class="label" x="1330.0" y="369" text-anchor="middle">-0.04</text>
<line class="grid" x1="1381.7" y1="45" x2="1381.7" y2="345"/>
<text class="label" x="1381.7" y="369" text-anchor="middle">0.00</text>
<line class="grid" x1="1950.0" y1="45" x2="1950.0" y2="345"/>
<text class="label" x="1950.0" y="369" text-anchor="middle">0.41</text>
<line class="axis" x1="1381.7" y1="45" x2="1381.7" y2="345"/>
<text class="label" x="1040" y="83.0" dominant-baseline="middle">static PCA latent regression</text>
<rect x="1381.7" y="71.0" width="104.6" height="24" rx="4" fill="#0f766e"/>
<text class="value" x="1494.3" y="83.0" dominant-baseline="middle" text-anchor="start">0.0755</text>
<text class="label" x="1040" y="139.0" dominant-baseline="middle">static direct ridge</text>
<rect x="1381.7" y="127.0" width="105.5" height="24" rx="4" fill="#0f766e"/>
<text class="value" x="1495.1" y="139.0" dominant-baseline="middle" text-anchor="start">0.0761</text>
<text class="label" x="1040" y="195.0" dominant-baseline="middle">lagged direct ridge (5 bins)</text>
<rect x="1381.7" y="183.0" width="278.0" height="24" rx="4" fill="#0f766e"/>
<text class="value" x="1667.7" y="195.0" dominant-baseline="middle" text-anchor="start">0.2007</text>
<text class="label" x="1040" y="251.0" dominant-baseline="middle">lagged PCA latent regression (5 bins)</text>
<rect x="1381.7" y="239.0" width="338.1" height="24" rx="4" fill="#0f766e"/>
<text class="value" x="1727.8" y="251.0" dominant-baseline="middle" text-anchor="start">0.2441</text>
<text class="label" x="1040" y="307.0" dominant-baseline="middle">lagged PCA latent regression (selected history)</text>
<rect x="1381.7" y="295.0" width="516.7" height="24" rx="4" fill="#0f766e"/>
<text class="value" x="1906.3" y="307.0" dominant-baseline="middle" text-anchor="start">0.3730</text>
</svg>