<svg xmlns="http://www.w3.org/2000/svg" width="1820" height="430" viewBox="0 0 1820 430">
<style>
text { font-family: Arial, Helvetica, sans-serif; fill: #1b1f24; }
.title { font-size: 18px; font-weight: 700; }
.panel-title { font-size: 14px; font-weight: 700; }
.label { font-size: 12px; }
.tick { font-size: 11px; fill: #374151; }
.value { font-size: 12px; font-weight: 600; }
.axis { stroke: #9aa4af; stroke-width: 1; }
.grid { stroke: #e5e7eb; stroke-width: 1; }
</style>
<rect width="100%" height="100%" fill="#ffffff"/>
<text class="title" x="24" y="34">mc_maze model diagnostics</text>
<text class="panel-title" x="24" y="60">co-bps</text>
<line class="grid" x1="340.0" y1="98" x2="340.0" y2="400"/>
<text class="tick" x="340.0" y="416" text-anchor="middle">-0.48</text>
<line class="grid" x1="741.1" y1="98" x2="741.1" y2="400"/>
<text class="tick" x="741.1" y="416" text-anchor="middle">0.00</text>
<line class="grid" x1="822.0" y1="98" x2="822.0" y2="400"/>
<text class="tick" x="822.0" y="416" text-anchor="middle">0.10</text>
<line class="axis" x1="741.1" y1="98" x2="741.1" y2="400"/>
<text class="label" x="24" y="134">static PCA latent regression</text>
<rect x="741.1" y="122" width="3.2" height="22" rx="4" fill="#0f766e"/>
<text class="value" x="759.1" y="137" text-anchor="start">0.0039</text>
<text class="label" x="24" y="182">static direct ridge</text>
<rect x="713.0" y="170" width="28.1" height="22" rx="4" fill="#b45309"/>
<text class="value" x="701.0" y="185" text-anchor="end">-0.0335</text>
<text class="label" x="24" y="230">lagged direct ridge (5 bins)</text>
<rect x="380.2" y="218" width="360.9" height="22" rx="4" fill="#b45309"/>
<text class="value" x="368.2" y="233" text-anchor="end">-0.4301</text>
<text class="label" x="24" y="278">lagged reduced-rank regression (selected)</text>
<rect x="733.5" y="266" width="7.6" height="22" rx="4" fill="#b45309"/>
<text class="value" x="721.5" y="281" text-anchor="end">-0.0091</text>
<text class="label" x="24" y="326">lagged PCA latent regression (5 bins)</text>
<rect x="741.1" y="314" width="35.1" height="22" rx="4" fill="#0f766e"/>
<text class="value" x="788.1" y="329" text-anchor="start">0.0418</text>
<text class="label" x="24" y="374">lagged PCA latent regression (selected history)</text>
<rect x="741.1" y="362" width="40.8" height="22" rx="4" fill="#0f766e"/>
<text class="value" x="793.8" y="377" text-anchor="start">0.0486</text>
<text class="panel-title" x="918" y="60">vel R2</text>
<line class="grid" x1="1234.0" y1="98" x2="1234.0" y2="400"/>
<text class="tick" x="1234.0" y="416" text-anchor="middle">-0.04</text>
<line class="grid" x1="1274.2" y1="98" x2="1274.2" y2="400"/>
<text class="tick" x="1274.2" y="416" text-anchor="middle">0.00</text>
<line class="grid" x1="1716.0" y1="98" x2="1716.0" y2="400"/>
<text class="tick" x="1716.0" y="416" text-anchor="middle">0.41</text>
<line class="axis" x1="1274.2" y1="98" x2="1274.2" y2="400"/>
<text class="label" x="918" y="134">static PCA latent regression</text>
<rect x="1274.2" y="122" width="81.3" height="22" rx="4" fill="#0f766e"/>
<text class="value" x="1367.5" y="137" text-anchor="start">0.0755</text>
<text class="label" x="918" y="182">static direct ridge</text>
<rect x="1274.2" y="170" width="82.0" height="22" rx="4" fill="#0f766e"/>
<text class="value" x="1368.2" y="185" text-anchor="start">0.0761</text>
<text class="label" x="918" y="230">lagged direct ridge (5 bins)</text>
<rect x="1274.2" y="218" width="216.1" height="22" rx="4" fill="#0f766e"/>
<text class="value" x="1502.3" y="233" text-anchor="start">0.2007</text>
<text class="label" x="918" y="278">lagged reduced-rank regression (selected)</text>
<rect x="1274.2" y="266" width="171.7" height="22" rx="4" fill="#0f766e"/>
<text class="value" x="1457.9" y="281" text-anchor="start">0.1594</text>
<text class="label" x="918" y="326">lagged PCA latent regression (5 bins)</text>
<rect x="1274.2" y="314" width="262.9" height="22" rx="4" fill="#0f766e"/>
<text class="value" x="1549.0" y="329" text-anchor="start">0.2441</text>
<text class="label" x="918" y="374">lagged PCA latent regression (selected history)</text>
<rect x="1274.2" y="362" width="401.7" height="22" rx="4" fill="#0f766e"/>
<text class="value" x="1687.8" y="377" text-anchor="start">0.3730</text>
</svg>