<svg xmlns="http://www.w3.org/2000/svg" width="980" height="426" viewBox="0 0 980 426">
<style>
text { font-family: Arial, Helvetica, sans-serif; fill: #1b1f24; }
.title { font-size: 24px; font-weight: 700; }
.label { font-size: 14px; }
.value { font-size: 13px; font-weight: 600; }
.axis { stroke: #9aa4af; stroke-width: 1; }
.grid { stroke: #e5e7eb; stroke-width: 1; }
</style>
<rect width="100%" height="100%" fill="#ffffff"/>
<text class="title" x="30" y="30">mc_maze co-bps comparison</text>
<line class="grid" x1="320.0" y1="30" x2="320.0" y2="386"/>
<text class="label" x="320.0" y="408" text-anchor="middle">-0.48</text>
<line class="grid" x1="810.9" y1="30" x2="810.9" y2="386"/>
<text class="label" x="810.9" y="408" text-anchor="middle">0.00</text>
<line class="grid" x1="910.0" y1="30" x2="910.0" y2="386"/>
<text class="label" x="910.0" y="408" text-anchor="middle">0.10</text>
<line class="axis" x1="810.9" y1="30" x2="810.9" y2="386"/>
<text class="label" x="20" y="70">static PCA latent regression</text>
<rect x="810.9" y="54" width="4.0" height="24" rx="4" fill="#0f766e"/>
<text class="value" x="824.9" y="71" text-anchor="start">0.0039</text>
<text class="label" x="20" y="126">static direct ridge</text>
<rect x="776.5" y="110" width="34.4" height="24" rx="4" fill="#b45309"/>
<text class="value" x="766.5" y="127" text-anchor="end">-0.0335</text>
<text class="label" x="20" y="182">lagged direct ridge (5 bins)</text>
<rect x="369.2" y="166" width="441.7" height="24" rx="4" fill="#b45309"/>
<text class="value" x="359.2" y="183" text-anchor="end">-0.4301</text>
<text class="label" x="20" y="238">lagged reduced-rank regression (selected)</text>
<rect x="801.6" y="222" width="9.3" height="24" rx="4" fill="#b45309"/>
<text class="value" x="791.6" y="239" text-anchor="end">-0.0091</text>
<text class="label" x="20" y="294">lagged PCA latent regression (5 bins)</text>
<rect x="810.9" y="278" width="42.9" height="24" rx="4" fill="#0f766e"/>
<text class="value" x="863.8" y="295" text-anchor="start">0.0418</text>
<text class="label" x="20" y="350">lagged PCA latent regression (selected history)</text>
<rect x="810.9" y="334" width="49.9" height="24" rx="4" fill="#0f766e"/>
<text class="value" x="870.8" y="351" text-anchor="start">0.0486</text>
</svg>