<svg xmlns="http://www.w3.org/2000/svg" width="2000" height="400" viewBox="0 0 2000 400">
<style>
text { font-family: Arial, Helvetica, sans-serif; fill: #1b1f24; }
.title { font-size: 24px; font-weight: 700; }
.panel-title { font-size: 18px; font-weight: 700; }
.label { font-size: 14px; }
.value { font-size: 13px; font-weight: 600; }
.axis { stroke: #9aa4af; stroke-width: 1; }
.grid { stroke: #e5e7eb; stroke-width: 1; }
</style>
<rect width="100%" height="100%" fill="#ffffff"/>
<text class="title" x="30" y="34">mc_maze model diagnostics</text>
<text class="panel-title" x="20" y="52">co-bps</text>
<line class="grid" x1="310.0" y1="60" x2="310.0" y2="360"/>
<text class="label" x="310.0" y="384" text-anchor="middle">-0.48</text>
<line class="grid" x1="825.9" y1="60" x2="825.9" y2="360"/>
<text class="label" x="825.9" y="384" text-anchor="middle">0.00</text>
<line class="grid" x1="930.0" y1="60" x2="930.0" y2="360"/>
<text class="label" x="930.0" y="384" text-anchor="middle">0.10</text>
<line class="axis" x1="825.9" y1="60" x2="825.9" y2="360"/>
<text class="label" x="20" y="98.0" dominant-baseline="middle">static PCA latent regression</text>
<rect x="825.9" y="86.0" width="4.2" height="24" rx="4" fill="#0f766e"/>
<text class="value" x="838.1" y="98.0" dominant-baseline="middle" text-anchor="start">0.0039</text>
<text class="label" x="20" y="154.0" dominant-baseline="middle">static direct ridge</text>
<rect x="789.7" y="142.0" width="36.1" height="24" rx="4" fill="#b45309"/>
<text class="value" x="781.7" y="154.0" dominant-baseline="middle" text-anchor="end">-0.0335</text>
<text class="label" x="20" y="210.0" dominant-baseline="middle">lagged direct ridge (5 bins)</text>
<rect x="361.7" y="198.0" width="464.2" height="24" rx="4" fill="#b45309"/>
<text class="value" x="353.7" y="210.0" dominant-baseline="middle" text-anchor="end">-0.4301</text>
<text class="label" x="20" y="266.0" dominant-baseline="middle">lagged PCA latent regression (5 bins)</text>
<rect x="825.9" y="254.0" width="45.1" height="24" rx="4" fill="#0f766e"/>
<text class="value" x="879.0" y="266.0" dominant-baseline="middle" text-anchor="start">0.0418</text>
<text class="label" x="20" y="322.0" dominant-baseline="middle">lagged PCA latent regression (selected history)</text>
<rect x="825.9" y="310.0" width="52.5" height="24" rx="4" fill="#0f766e"/>
<text class="value" x="886.3" y="322.0" dominant-baseline="middle" text-anchor="start">0.0486</text>
<text class="panel-title" x="1040" y="52">vel R2</text>
<line class="grid" x1="1330.0" y1="60" x2="1330.0" y2="360"/>
<text class="label" x="1330.0" y="384" text-anchor="middle">-0.04</text>
<line class="grid" x1="1381.7" y1="60" x2="1381.7" y2="360"/>
<text class="label" x="1381.7" y="384" text-anchor="middle">0.00</text>
<line class="grid" x1="1950.0" y1="60" x2="1950.0" y2="360"/>
<text class="label" x="1950.0" y="384" text-anchor="middle">0.41</text>
<line class="axis" x1="1381.7" y1="60" x2="1381.7" y2="360"/>
<text class="label" x="1040" y="98.0" dominant-baseline="middle">static PCA latent regression</text>
<rect x="1381.7" y="86.0" width="104.6" height="24" rx="4" fill="#0f766e"/>
<text class="value" x="1494.3" y="98.0" dominant-baseline="middle" text-anchor="start">0.0755</text>
<text class="label" x="1040" y="154.0" dominant-baseline="middle">static direct ridge</text>
<rect x="1381.7" y="142.0" width="105.5" height="24" rx="4" fill="#0f766e"/>
<text class="value" x="1495.1" y="154.0" dominant-baseline="middle" text-anchor="start">0.0761</text>
<text class="label" x="1040" y="210.0" dominant-baseline="middle">lagged direct ridge (5 bins)</text>
<rect x="1381.7" y="198.0" width="278.0" height="24" rx="4" fill="#0f766e"/>
<text class="value" x="1667.7" y="210.0" dominant-baseline="middle" text-anchor="start">0.2007</text>
<text class="label" x="1040" y="266.0" dominant-baseline="middle">lagged PCA latent regression (5 bins)</text>
<rect x="1381.7" y="254.0" width="338.1" height="24" rx="4" fill="#0f766e"/>
<text class="value" x="1727.8" y="266.0" dominant-baseline="middle" text-anchor="start">0.2441</text>
<text class="label" x="1040" y="322.0" dominant-baseline="middle">lagged PCA latent regression (selected history)</text>
<rect x="1381.7" y="310.0" width="516.7" height="24" rx="4" fill="#0f766e"/>
<text class="value" x="1906.3" y="322.0" dominant-baseline="middle" text-anchor="start">0.3730</text>
</svg>