<svg xmlns="http://www.w3.org/2000/svg" width="1080" height="426" viewBox="0 0 1080 426">
<style>
text { font-family: Arial, Helvetica, sans-serif; fill: #1b1f24; }
.title { font-size: 24px; font-weight: 700; }
.label { font-size: 14px; }
.value { font-size: 13px; font-weight: 600; }
.axis { stroke: #9aa4af; stroke-width: 1; }
.grid { stroke: #e5e7eb; stroke-width: 1; }
</style>
<rect width="100%" height="100%" fill="#ffffff"/>
<text class="title" x="30" y="30">mc_maze co-bps comparison</text>
<line class="grid" x1="390.0" y1="30" x2="390.0" y2="386"/>
<text class="label" x="390.0" y="408" text-anchor="middle">-0.48</text>
<line class="grid" x1="905.9" y1="30" x2="905.9" y2="386"/>
<text class="label" x="905.9" y="408" text-anchor="middle">0.00</text>
<line class="grid" x1="1010.0" y1="30" x2="1010.0" y2="386"/>
<text class="label" x="1010.0" y="408" text-anchor="middle">0.10</text>
<line class="axis" x1="905.9" y1="30" x2="905.9" y2="386"/>
<text class="label" x="20" y="70">static PCA latent regression</text>
<rect x="905.9" y="54" width="4.2" height="24" rx="4" fill="#0f766e"/>
<text class="value" x="923.9" y="71" text-anchor="start">0.0039</text>
<text class="label" x="20" y="126">static direct ridge</text>
<rect x="869.7" y="110" width="36.1" height="24" rx="4" fill="#b45309"/>
<text class="value" x="857.7" y="127" text-anchor="end">-0.0335</text>
<text class="label" x="20" y="182">lagged direct ridge (5 bins)</text>
<rect x="441.7" y="166" width="464.2" height="24" rx="4" fill="#b45309"/>
<text class="value" x="429.7" y="183" text-anchor="end">-0.4301</text>
<text class="label" x="20" y="238">lagged reduced-rank regression (selected)</text>
<rect x="896.1" y="222" width="9.8" height="24" rx="4" fill="#b45309"/>
<text class="value" x="884.1" y="239" text-anchor="end">-0.0091</text>
<text class="label" x="20" y="294">lagged PCA latent regression (5 bins)</text>
<rect x="905.9" y="278" width="45.1" height="24" rx="4" fill="#0f766e"/>
<text class="value" x="963.0" y="295" text-anchor="start">0.0418</text>
<text class="label" x="20" y="350">lagged PCA latent regression (selected history)</text>
<rect x="905.9" y="334" width="52.5" height="24" rx="4" fill="#0f766e"/>
<text class="value" x="970.3" y="351" text-anchor="start">0.0486</text>
</svg>